<?xml version="1.0" encoding="UTF-8" standalone="no"?>
<!-- Created with Inkscape (http://www.inkscape.org/) -->

<svg
   xmlns:dc="http://purl.org/dc/elements/1.1/"
   xmlns:cc="http://creativecommons.org/ns#"
   xmlns:rdf="http://www.w3.org/1999/02/22-rdf-syntax-ns#"
   xmlns:svg="http://www.w3.org/2000/svg"
   xmlns="http://www.w3.org/2000/svg"
   xmlns:sodipodi="http://sodipodi.sourceforge.net/DTD/sodipodi-0.dtd"
   xmlns:inkscape="http://www.inkscape.org/namespaces/inkscape"
   width="38pt"
   height="38pt"
   viewBox="0 0 13.405556 13.405555"
   version="1.1"
   id="svg8"
   inkscape:version="0.92.3 (2405546, 2018-03-11)"
   sodipodi:docname="logo.svg">
  <defs
     id="defs2" />
  <sodipodi:namedview
     id="base"
     pagecolor="#ffffff"
     bordercolor="#666666"
     borderopacity="1.0"
     inkscape:pageopacity="0.0"
     inkscape:pageshadow="2"
     inkscape:zoom="7.9195959"
     inkscape:cx="29.819538"
     inkscape:cy="20.556983"
     inkscape:document-units="mm"
     inkscape:current-layer="layer2"
     showgrid="false"
     inkscape:window-width="1920"
     inkscape:window-height="1017"
     inkscape:window-x="-8"
     inkscape:window-y="-8"
     inkscape:window-maximized="1"
     units="pt" />
  <metadata
     id="metadata5">
    <rdf:RDF>
      <cc:Work
         rdf:about="">
        <dc:format>image/svg+xml</dc:format>
        <dc:type
           rdf:resource="http://purl.org/dc/dcmitype/StillImage" />
        <dc:title></dc:title>
      </cc:Work>
    </rdf:RDF>
  </metadata>
  <g
     inkscape:label="B"
     inkscape:groupmode="layer"
     id="layer1"
     transform="translate(0,-283.59445)">
    <g
       aria-label="B"
       style="font-style:normal;font-variant:normal;font-weight:normal;font-stretch:normal;font-size:10.24140072px;line-height:125%;font-family:'Copperplate Gothic Bold';-inkscape-font-specification:'Copperplate Gothic Bold, ';text-align:center;letter-spacing:0px;word-spacing:0px;text-anchor:middle;fill:#000000;fill-opacity:1;stroke:#ffffff;stroke-width:0.2;stroke-linecap:butt;stroke-linejoin:miter;stroke-miterlimit:4;stroke-dasharray:none;stroke-opacity:1"
       id="text821"
       transform="matrix(1.0310802,0,0,1.0310802,-0.92936038,-8.8662018)">
      <path
         d="m 12.528047,290.1919 c 0.766771,0.29004 1.150157,0.82678 1.150157,1.61022 0,0.62341 -0.223364,1.11181 -0.670092,1.4652 -0.226697,0.17669 -0.490067,0.30504 -0.790108,0.38505 -0.296707,0.0767 -0.665091,0.11501 -1.105151,0.11501 h -0.313494 c 0,0 -0.226337,-0.072 -0.315294,-0.14616 -0.139989,-0.11677 -0.210196,-0.2979 -0.315295,-0.44685 -0.105097,-0.14895 -0.1753066,-0.33007 -0.3152944,-0.44684 -0.088958,-0.0742 -0.199453,-0.14616 -0.3152945,-0.14616 -0.1158415,0 -0.2263366,0.072 -0.3152945,0.14616 -0.1399878,0.11677 -0.210197,0.29789 -0.3152944,0.44684 -0.1050989,0.14895 -0.1753052,0.33008 -0.3152945,0.44685 -0.088958,0.0742 -0.3152945,0.14616 -0.3152945,0.14616 H 6.4472148 v -0.16002 c 0.1200164,-0.0333 0.2033611,-0.0767 0.2500342,-0.13001 0.046673,-0.0533 0.07001,-0.13168 0.07001,-0.23504 v -5.77579 c 0,-0.10335 -0.023337,-0.18169 -0.07001,-0.23503 -0.046673,-0.0533 -0.1300181,-0.0967 -0.2500342,-0.13002 v -0.16002 h 1.762971 c 0,0 0.2409382,-0.0704 0.337219,-0.14616 0.1466502,-0.11539 0.2248135,-0.29789 0.3372191,-0.44684 0.1124071,-0.14895 0.1905673,-0.33146 0.337219,-0.44685 0.09628,-0.0758 0.2147085,-0.14616 0.337219,-0.14616 0.1225105,0 0.2409386,0.0704 0.337219,0.14616 0.1466521,0.11539 0.2248121,0.2979 0.3372191,0.44685 0.112406,0.14895 0.190569,0.33145 0.337219,0.44684 0.09628,0.0758 0.337219,0.14616 0.337219,0.14616 h 0.159909 c 0.443394,0 0.800109,0.0333 1.070146,0.10001 0.270037,0.0667 0.506736,0.18003 0.710097,0.34005 0.403389,0.31671 0.605083,0.77344 0.605083,1.37019 0,0.66676 -0.308375,1.14683 -0.925126,1.4402 z m -4.2705846,-0.53508 c 0,0 0.2340869,-0.0711 0.3269197,-0.14616 0.14353,-0.11602 0.2179457,-0.2979 0.3269197,-0.44685 0.1089724,-0.14895 0.1833912,-0.33082 0.3269197,-0.44684 0.092833,-0.075 0.2075513,-0.14616 0.3269197,-0.14616 0.1193684,0 0.2340865,0.0711 0.3269197,0.14616 0.1435281,0.11602 0.2179471,0.29789 0.3269201,0.44684 0.108974,0.14895 0.183389,0.33083 0.326919,0.44685 0.09283,0.075 0.32692,0.14616 0.32692,0.14616 0.362172,0.16192 0.673426,-0.0583 0.830114,-0.17502 0.176691,-0.13335 0.265036,-0.34005 0.265036,-0.62009 0,-0.28671 -0.08335,-0.49007 -0.250034,-0.61008 -0.166689,-0.12335 -0.448395,-0.18502 -0.845116,-0.18502 0,0 -0.234087,-0.0711 -0.32692,-0.14616 -0.14353,-0.11602 -0.217945,-0.2979 -0.326919,-0.44685 -0.108973,-0.14895 -0.183392,-0.33082 -0.3269201,-0.44684 -0.092833,-0.075 -0.2075513,-0.14616 -0.3269197,-0.14616 -0.1193684,0 -0.2340865,0.0711 -0.3269197,0.14616 -0.1435285,0.11602 -0.2179473,0.29789 -0.3269197,0.44684 -0.108974,0.14895 -0.1833897,0.33083 -0.3269197,0.44685 -0.092833,0.075 -0.3269197,0.14616 -0.3269197,0.14616 v 0.79511 z m 0,2.98541 c 0,0 0.2270035,-0.0719 0.3162933,-0.14616 0.1402943,-0.1167 0.2108615,-0.2979 0.3162934,-0.44685 0.1054303,-0.14895 0.1760005,-0.33014 0.3162933,-0.44684 0.08929,-0.0743 0.2001496,-0.14616 0.3162933,-0.14616 0.1161437,0 0.2270032,0.0719 0.3162933,0.14616 0.1402928,0.1167 0.210863,0.29789 0.316293,0.44684 0.105432,0.14895 0.176,0.33015 0.316294,0.44685 0.08929,0.0743 0.316293,0.14616 0.316293,0.14616 0.426704,0.19719 0.808443,-0.065 1.015138,-0.19503 0.236699,-0.15002 0.355049,-0.39505 0.355049,-0.7351 0,-0.33671 -0.11835,-0.58175 -0.355049,-0.7351 -0.203361,-0.13001 -0.54174,-0.19502 -1.015138,-0.19502 0,0 -0.227003,-0.0719 -0.316293,-0.14616 -0.140293,-0.1167 -0.210863,-0.29789 -0.316294,-0.44684 -0.105432,-0.14895 -0.1759987,-0.33015 -0.316293,-0.44685 -0.08929,-0.0743 -0.2001496,-0.14616 -0.3162933,-0.14616 -0.1161437,0 -0.2270035,0.0719 -0.3162933,0.14616 -0.1402943,0.1167 -0.2108614,0.2979 -0.3162933,0.44685 -0.1054303,0.14895 -0.1760006,0.33014 -0.3162934,0.44684 -0.08929,0.0743 -0.3162933,0.14616 -0.3162933,0.14616 v 0.93013 z"
         style="font-style:normal;font-variant:normal;font-weight:normal;font-stretch:normal;font-family:'Copperplate Gothic Bold';-inkscape-font-specification:'Copperplate Gothic Bold, ';stroke:#ffffff;stroke-width:0.2;stroke-miterlimit:4;stroke-dasharray:none;stroke-opacity:1"
         id="path912"
         inkscape:connector-curvature="0"
         sodipodi:nodetypes="csccscsssssssccccssccccssssssscsccsccsssssssscscsssssssscsccsssssssscscsssssssscsc" />
    </g>
    <g
       aria-label="B"
       style="font-style:normal;font-weight:normal;font-size:4.23333311px;line-height:125%;font-family:Sans;text-align:center;letter-spacing:0px;word-spacing:0px;text-anchor:middle;fill:#000000;fill-opacity:1;stroke:none;stroke-width:0.26458332px;stroke-linecap:butt;stroke-linejoin:miter;stroke-opacity:1"
       id="text821-2"
       transform="translate(2.6222098,9.7565104)" />
  </g>
  <g
     inkscape:groupmode="layer"
     id="layer2"
     inkscape:label="D">
    <g
       transform="matrix(1.0310802,0,0,1.0310802,7.0974178e-4,-292.73622)"
       aria-label="D"
       style="font-style:normal;font-variant:normal;font-weight:normal;font-stretch:normal;font-size:10.24140072px;line-height:125%;font-family:'Copperplate Gothic Bold';-inkscape-font-specification:'Copperplate Gothic Bold, ';text-align:center;letter-spacing:0px;word-spacing:0px;text-anchor:middle;fill:#000000;fill-opacity:1;stroke:#ffffff;stroke-width:0.2;stroke-linecap:butt;stroke-linejoin:miter;stroke-miterlimit:4;stroke-dasharray:none;stroke-opacity:1"
       id="text817">
      <path
         d="m 0.39720802,293.45109 v -5.77579 c 0,-0.10335 -0.0233365,-0.18169 -0.0700096,-0.23503 -0.0466731,-0.0533 -0.1300178,-0.0967 -0.2500342,-0.13002 v -0.16002 H 2.9138327 c 0.8334473,0 1.4735349,0.095 1.9202627,0.28504 0.6400875,0.27671 1.1134856,0.73344 1.4201942,1.37019 0.2433666,0.50007 0.3650499,1.08515 0.3650499,1.75524 0,1.17683 -0.3617162,2.07362 -1.0851484,2.69037 -0.3033748,0.26003 -0.6584234,0.44672 -1.0651457,0.56007 -0.4067223,0.11002 -0.9251265,0.16503 -1.5552127,0.16503 H 0.07716425 v -0.16003 c 0.12001641,-0.0333 0.20336115,-0.0767 0.2500342,-0.13001 0.0466731,-0.0533 0.0700096,-0.13168 0.0700096,-0.23504 z m 1.49020378,-0.60008 h 0.9014038 c 0.5967483,0 1.045143,-0.0817 1.345184,-0.24503 0.6434213,-0.35005 0.965132,-1.03181 0.965132,-2.04528 0,-0.73343 -0.1733571,-1.29518 -0.5200711,-1.68523 -0.1933598,-0.2167 -0.4267251,-0.37005 -0.7000958,-0.46006 -0.2733707,-0.0933 -0.6367537,-0.14002 -1.0901491,-0.14002 H 1.8874118 Z"
         style="font-style:normal;font-variant:normal;font-weight:normal;font-stretch:normal;font-family:'Copperplate Gothic Bold';-inkscape-font-specification:'Copperplate Gothic Bold, ';stroke:#ffffff;stroke-width:0.2;stroke-miterlimit:4;stroke-dasharray:none;stroke-opacity:1"
         id="path915"
         inkscape:connector-curvature="0"
         sodipodi:nodetypes="sscccsccsccscccscscsccscc" />
    </g>
  </g>
</svg>
